<mxfile host="app.diagrams.net" modified="2023-03-28T04:30:54.919Z" agent="Mozilla/5.0 (Windows NT 10.0; Win64; x64) AppleWebKit/537.36 (KHTML, like Gecko) Chrome/108.0.0.0 YaBrowser/23.1.5.708 Yowser/2.5 Safari/537.36" version="21.1.0" etag="SWg3xbQuHvFVHf_QrFtP" type="github">
  <diagram name="Страница 1" id="FBe8m-XZMDyeDmE-r-VK">
    <mxGraphModel>
      <root>
        <mxCell id="0" />
        <mxCell id="1" parent="0" />
      </root>
    </mxGraphModel>
  </diagram>
</mxfile>
